<?xml version="1.0" encoding="UTF-8"?>
<svg version="1.1" xmlns="http://www.w3.org/2000/svg" width="512" height="512">
<path d="M0 0 C22.06657747 10.98121496 39.01895947 27.23395414 48.05834961 50.43041992 C48.05834961 51.42041992 48.05834961 52.41041992 48.05834961 53.43041992 C49.34805664 52.65118164 49.34805664 52.65118164 50.66381836 51.85620117 C73.46567056 38.30265266 96.71758607 34.36006052 122.67553711 39.48120117 C130.95184006 41.8035356 133.96119093 45.45448204 138.10131836 52.69995117 C149.28795724 73.49078221 153.23585749 98.49021855 146.71459961 121.46557617 C146.38975586 122.43817383 146.38975586 122.43817383 146.05834961 123.43041992 C147.69416992 123.54256836 147.69416992 123.54256836 149.36303711 123.65698242 C177.16213206 125.92610572 197.47838579 137.86785266 215.63256836 158.65307617 C219.62542539 163.63047329 218.55756488 170.36453608 218.05834961 176.43041992 C214.9389091 200.17461486 203.67685264 219.48856071 186.05834961 235.43041992 C185.39834961 235.76041992 184.73834961 236.09041992 184.05834961 236.43041992 C184.05834961 237.09041992 184.05834961 237.75041992 184.05834961 238.43041992 C185.60914031 239.99906074 185.60914031 239.99906074 187.62084961 241.61791992 C188.35561523 242.24956055 189.09038086 242.88120117 189.84741211 243.53198242 C190.57702148 244.1584668 191.30663086 244.78495117 192.05834961 245.43041992 C208.29751956 259.38036767 216.43482212 281.56704055 218.51147461 302.40698242 C218.76158979 307.71624557 218.86037979 312.14924619 215.74584961 316.61791992 C214.55116005 317.92121763 213.3170482 319.18882985 212.05834961 320.43041992 C211.28104492 321.29151367 210.50374023 322.15260742 209.70288086 323.03979492 C192.53654063 341.39788993 170.66333452 349.33167822 146.05834961 351.43041992 C146.38319336 352.40301758 146.38319336 352.40301758 146.71459961 353.39526367 C153.74968338 378.18090605 148.37360978 403.41984805 136.36694336 425.54760742 C133.17114421 430.66385199 130.4881785 433.57750458 124.53491211 434.98120117 C123.30901367 435.20356445 123.30901367 435.20356445 122.05834961 435.43041992 C121.22045898 435.63022461 120.38256836 435.8300293 119.51928711 436.03588867 C95.53598104 441.06900502 71.9080224 435.81672379 51.05834961 423.43041992 C50.06834961 422.77041992 49.07834961 422.11041992 48.05834961 421.43041992 C47.96682617 422.27088867 47.87530273 423.11135742 47.78100586 423.97729492 C46.95324193 427.93266417 45.41638205 431.16840838 43.49584961 434.68041992 C43.13869873 435.33864746 42.78154785 435.996875 42.41357422 436.67504883 C39.19952293 442.44328037 35.48833012 447.52519246 31.05834961 452.43041992 C30.40608398 453.17549805 29.75381836 453.92057617 29.08178711 454.68823242 C19.59878242 464.88157454 3.47323659 476.88268122 -10.75415039 478.30541992 C-26.11580486 477.23309664 -43.38220412 462.86136611 -53.37133789 452.44995117 C-60.14130826 444.49677929 -69.94165039 432.12633286 -69.94165039 421.43041992 C-70.80145508 421.94991211 -71.66125977 422.4694043 -72.54711914 423.00463867 C-95.34897134 436.55818718 -118.60088685 440.50077933 -144.55883789 435.37963867 C-152.83514084 433.05730424 -155.84449172 429.40635781 -159.98461914 422.16088867 C-171.17125802 401.37005763 -175.11915827 376.37062129 -168.59790039 353.39526367 C-168.38133789 352.74686523 -168.16477539 352.0984668 -167.94165039 351.43041992 C-169.03219727 351.3556543 -170.12274414 351.28088867 -171.24633789 351.20385742 C-199.04543284 348.93473412 -219.36168658 336.99298719 -237.51586914 316.20776367 C-241.50872617 311.23036655 -240.44086566 304.49630377 -239.94165039 298.43041992 C-236.82220988 274.68622499 -225.56015342 255.37227914 -207.94165039 239.43041992 C-207.28165039 239.10041992 -206.62165039 238.77041992 -205.94165039 238.43041992 C-205.94165039 237.77041992 -205.94165039 237.11041992 -205.94165039 236.43041992 C-207.49244109 234.8617791 -207.49244109 234.8617791 -209.50415039 233.24291992 C-210.23891602 232.6112793 -210.97368164 231.97963867 -211.73071289 231.32885742 C-212.46032227 230.70237305 -213.18993164 230.07588867 -213.94165039 229.43041992 C-230.18082034 215.48047217 -238.3181229 193.2937993 -240.39477539 172.45385742 C-240.64489057 167.14459427 -240.74368057 162.71159366 -237.62915039 158.24291992 C-236.43446083 156.93962222 -235.20034899 155.67200999 -233.94165039 154.43041992 C-233.1643457 153.56932617 -232.38704102 152.70823242 -231.58618164 151.82104492 C-214.41984142 133.46294991 -192.5466353 125.52916162 -167.94165039 123.43041992 C-168.15821289 122.78202148 -168.37477539 122.13362305 -168.59790039 121.46557617 C-175.63298417 96.6799338 -170.25691056 71.44099179 -158.25024414 49.31323242 C-155.054445 44.19698785 -152.37147928 41.28333526 -146.41821289 39.87963867 C-145.60094727 39.73139648 -144.78368164 39.5831543 -143.94165039 39.43041992 C-142.68481445 39.13071289 -142.68481445 39.13071289 -141.40258789 38.82495117 C-117.41928182 33.79183483 -93.79132318 39.04411605 -72.94165039 51.43041992 C-71.95165039 52.09041992 -70.96165039 52.75041992 -69.94165039 53.43041992 C-69.80436523 52.1697168 -69.80436523 52.1697168 -69.66430664 50.88354492 C-68.83654271 46.92817568 -67.29968283 43.69243147 -65.37915039 40.18041992 C-64.84342407 39.19307861 -64.84342407 39.19307861 -64.296875 38.18579102 C-61.08282372 32.41755947 -57.3716309 27.33564739 -52.94165039 22.43041992 C-52.28938477 21.6853418 -51.63711914 20.94026367 -50.96508789 20.17260742 C-38.81639141 7.11389622 -17.88172787 -8.38002888 0 0 Z " fill="#020102" transform="translate(266.941650390625,18.569580078125)"/>
<path d="M0 0 C25.34505633 11.79096099 43.19746921 34.54981371 54.6953125 59.25390625 C55.2625 60.35605469 55.8296875 61.45820313 56.4140625 62.59375 C57.6953125 65.25390625 57.6953125 65.25390625 57.6953125 67.25390625 C60.46875355 68.1783866 62.64563648 68.50745181 65.53515625 68.76171875 C92.44185195 71.40882829 115.88388599 80.86019201 136.6953125 98.25390625 C137.63632812 98.86492187 138.57734375 99.4759375 139.546875 100.10546875 C141.6953125 102.25390625 141.6953125 102.25390625 142.1328125 105.546875 C138.66787317 134.90604843 119.38877354 159.933042 98.4609375 179.32421875 C96.41712532 181.19533221 96.41712532 181.19533221 96.2578125 184.25390625 C96.42826633 187.5001995 97.28606312 190.38495996 98.1953125 193.49609375 C100.12173635 201.09582142 100.20170739 208.59533458 100.1328125 216.37890625 C100.12825043 217.47090332 100.12825043 217.47090332 100.12359619 218.58496094 C100.05380584 229.88541465 99.25649557 240.47143528 95.6953125 251.25390625 C95.32599609 252.39811035 95.32599609 252.39811035 94.94921875 253.56542969 C90.04246331 268.56032785 90.04246331 268.56032785 87.6953125 272.25390625 C66.82119243 279.21194627 35.69286384 271.76406734 16.41015625 262.19140625 C11.8580449 259.83171173 7.34111873 257.41936965 3.15234375 254.453125 C-0.1717309 252.83072291 -1.78566752 253.20891808 -5.3046875 254.25390625 C-7.43171813 255.38354687 -9.51293034 256.60157508 -11.5546875 257.87890625 C-30.88932163 269.42732482 -51.73531623 273.42826174 -74.0546875 273.44140625 C-75.16457031 273.45365234 -76.27445312 273.46589844 -77.41796875 273.47851562 C-78.48917969 273.48044922 -79.56039062 273.48238281 -80.6640625 273.484375 C-81.62795898 273.48848389 -82.59185547 273.49259277 -83.58496094 273.49682617 C-86.55623804 273.23143832 -88.66214752 272.63358124 -91.3046875 271.25390625 C-92.60962849 268.90260704 -93.5386443 266.87901777 -94.4296875 264.37890625 C-94.68266602 263.70633789 -94.93564453 263.03376953 -95.19628906 262.34082031 C-97.3669499 256.42261858 -99.05644929 250.43420765 -100.3046875 244.25390625 C-100.47315186 243.51841553 -100.64161621 242.7829248 -100.81518555 242.02514648 C-102.43119945 234.34962032 -102.64420375 226.79120058 -102.62036133 218.98413086 C-102.617197 216.82289296 -102.64076432 214.66302348 -102.66601562 212.50195312 C-102.69920769 204.93918957 -102.14665049 197.99379115 -99.9987793 190.68115234 C-99.04646601 187.35090306 -98.74545443 184.67920879 -99.3046875 181.25390625 C-100.92601517 179.49797779 -102.56144763 177.88142257 -104.3046875 176.25390625 C-121.03534786 160.0961152 -121.03534786 160.0961152 -126.3046875 151.25390625 C-126.64661133 150.7021875 -126.98853516 150.15046875 -127.34082031 149.58203125 C-136.18916298 135.24082131 -142.18056401 119.82663751 -145.3046875 103.25390625 C-131.10585515 90.28430144 -115.46145191 80.65631644 -97.3046875 74.25390625 C-96.14710938 73.84398437 -94.98953125 73.4340625 -93.796875 73.01171875 C-84.76236431 70.13996013 -75.68592779 69.2155268 -66.28076172 68.48754883 C-64.18272755 68.23948623 -62.30125057 67.95648541 -60.3046875 67.25390625 C-59.18678174 64.56123442 -59.18678174 64.56123442 -58.3046875 61.25390625 C-51.72015993 46.58477889 -20.32855061 -6.58093757 0 0 Z " fill="#030203" transform="translate(257.3046875,105.74609375)"/>
<path d="M0 0 C25.34505633 11.79096099 43.19746921 34.54981371 54.6953125 59.25390625 C55.2625 60.35605469 55.8296875 61.45820313 56.4140625 62.59375 C57.6953125 65.25390625 57.6953125 65.25390625 57.6953125 67.25390625 C60.46875355 68.1783866 62.64563648 68.50745181 65.53515625 68.76171875 C92.44185195 71.40882829 115.88388599 80.86019201 136.6953125 98.25390625 C137.63632812 98.86492187 138.57734375 99.4759375 139.546875 100.10546875 C141.6953125 102.25390625 141.6953125 102.25390625 142.1328125 105.546875 C138.66787317 134.90604843 119.38877354 159.933042 98.4609375 179.32421875 C96.41712532 181.19533221 96.41712532 181.19533221 96.2578125 184.25390625 C96.42826633 187.5001995 97.28606312 190.38495996 98.1953125 193.49609375 C100.12173635 201.09582142 100.20170739 208.59533458 100.1328125 216.37890625 C100.12825043 217.47090332 100.12825043 217.47090332 100.12359619 218.58496094 C100.05380584 229.88541465 99.25649557 240.47143528 95.6953125 251.25390625 C95.32599609 252.39811035 95.32599609 252.39811035 94.94921875 253.56542969 C90.04246331 268.56032785 90.04246331 268.56032785 87.6953125 272.25390625 C66.82119243 279.21194627 35.69286384 271.76406734 16.41015625 262.19140625 C11.8580449 259.83171173 7.34111873 257.41936965 3.15234375 254.453125 C-0.1717309 252.83072291 -1.78566752 253.20891808 -5.3046875 254.25390625 C-7.43171813 255.38354687 -9.51293034 256.60157508 -11.5546875 257.87890625 C-30.88932163 269.42732482 -51.73531623 273.42826174 -74.0546875 273.44140625 C-75.16457031 273.45365234 -76.27445312 273.46589844 -77.41796875 273.47851562 C-78.48917969 273.48044922 -79.56039062 273.48238281 -80.6640625 273.484375 C-81.62795898 273.48848389 -82.59185547 273.49259277 -83.58496094 273.49682617 C-86.55623804 273.23143832 -88.66214752 272.63358124 -91.3046875 271.25390625 C-92.60962849 268.90260704 -93.5386443 266.87901777 -94.4296875 264.37890625 C-94.68266602 263.70633789 -94.93564453 263.03376953 -95.19628906 262.34082031 C-97.3669499 256.42261858 -99.05644929 250.43420765 -100.3046875 244.25390625 C-100.47315186 243.51841553 -100.64161621 242.7829248 -100.81518555 242.02514648 C-102.43119945 234.34962032 -102.64420375 226.79120058 -102.62036133 218.98413086 C-102.617197 216.82289296 -102.64076432 214.66302348 -102.66601562 212.50195312 C-102.69920769 204.93918957 -102.14665049 197.99379115 -99.9987793 190.68115234 C-99.04646601 187.35090306 -98.74545443 184.67920879 -99.3046875 181.25390625 C-100.92601517 179.49797779 -102.56144763 177.88142257 -104.3046875 176.25390625 C-121.03534786 160.0961152 -121.03534786 160.0961152 -126.3046875 151.25390625 C-126.64661133 150.7021875 -126.98853516 150.15046875 -127.34082031 149.58203125 C-136.18916298 135.24082131 -142.18056401 119.82663751 -145.3046875 103.25390625 C-131.10585515 90.28430144 -115.46145191 80.65631644 -97.3046875 74.25390625 C-96.14710938 73.84398437 -94.98953125 73.4340625 -93.796875 73.01171875 C-84.76236431 70.13996013 -75.68592779 69.2155268 -66.28076172 68.48754883 C-64.18272755 68.23948623 -62.30125057 67.95648541 -60.3046875 67.25390625 C-59.18678174 64.56123442 -59.18678174 64.56123442 -58.3046875 61.25390625 C-51.72015993 46.58477889 -20.32855061 -6.58093757 0 0 Z M-31.85375977 42.54052734 C-40.20636004 55.91354634 -45.63433048 69.6885357 -48.3046875 85.25390625 C-49.28308594 85.09277344 -50.26148438 84.93164062 -51.26953125 84.765625 C-77.92694118 80.98419477 -107.31793468 88.22822924 -128.90625 104.35546875 C-131.10178054 107.33599346 -131.23332696 109.5694491 -131.3046875 113.25390625 C-130.48459708 116.31364182 -129.22865707 119.087116 -127.8671875 121.94140625 C-127.31792603 123.12669922 -127.31792603 123.12669922 -126.75756836 124.3359375 C-121.5328648 135.32448122 -114.72959199 144.47049519 -106.3046875 153.25390625 C-105.4796875 154.12015625 -104.6546875 154.98640625 -103.8046875 155.87890625 C-102.9796875 156.66265625 -102.1546875 157.44640625 -101.3046875 158.25390625 C-100.39203125 159.14142578 -100.39203125 159.14142578 -99.4609375 160.046875 C-89.49150695 169.50033909 -89.49150695 169.50033909 -77.3046875 174.25390625 C-77.77519531 175.25808594 -78.24570313 176.26226562 -78.73046875 177.296875 C-82.65384387 185.84464083 -85.57989386 193.96188418 -87.3046875 203.25390625 C-87.61019531 204.53201172 -87.61019531 204.53201172 -87.921875 205.8359375 C-91.39911742 221.340628 -91.09279213 242.75451475 -84.3046875 257.25390625 C-82.76562905 259.62155141 -82.76562905 259.62155141 -80.3046875 261.25390625 C-77.57233405 261.66725449 -75.34087115 261.82484354 -72.6171875 261.75390625 C-71.49485718 261.73577881 -71.49485718 261.73577881 -70.34985352 261.71728516 C-47.65792302 260.93406823 -24.14451875 251.11408803 -7.56567383 235.7590332 C-4.4539579 232.9314283 -3.70364942 232.25390625 0.6953125 232.25390625 C2.5625 233.6875 2.5625 233.6875 4.5703125 235.69140625 C17.64779277 247.80415437 33.56637465 254.88770641 50.6953125 259.25390625 C51.8090625 259.59421875 51.8090625 259.59421875 52.9453125 259.94140625 C58.22194589 261.42545939 63.55960847 261.5232624 69.0078125 261.62890625 C69.79768555 261.65500977 70.58755859 261.68111328 71.40136719 261.70800781 C75.0795456 261.71902503 77.0682845 261.69433072 80.13671875 259.5390625 C90.41528292 244.46898721 87.69108991 219.35323875 84.75 202.25 C82.84398464 192.46312474 79.28909183 183.08599389 74.6953125 174.25390625 C75.41332031 173.98707031 76.13132812 173.72023438 76.87109375 173.4453125 C86.09556814 169.55393672 93.54479174 163.10979383 100.6953125 156.25390625 C101.51902344 155.50496094 102.34273437 154.75601563 103.19140625 153.984375 C112.99109479 144.76563524 119.76675813 133.90159446 125.3828125 121.75390625 C125.73424316 121.01269531 126.08567383 120.27148438 126.44775391 119.5078125 C128.5351032 114.74534046 129.2002087 111.42897124 127.6953125 106.25390625 C117.58245783 92.94044066 91.79753196 86.91281055 76.21826172 84.63330078 C70.27037385 83.99275901 64.35784212 84.0439687 58.3828125 84.12890625 C57.15369141 84.13792969 55.92457031 84.14695312 54.65820312 84.15625 C51.67035706 84.17950172 48.68294766 84.21217502 45.6953125 84.25390625 C45.48777344 83.21234375 45.28023437 82.17078125 45.06640625 81.09765625 C40.56434011 59.67629118 31.01597389 41.96243249 15.6953125 26.25390625 C14.64150391 25.14208984 14.64150391 25.14208984 13.56640625 24.0078125 C7.1832023 17.29012965 7.1832023 17.29012965 -1.1171875 13.56640625 C-13.54072195 16.24599211 -25.21684478 32.28049884 -31.85375977 42.54052734 Z " fill="#CDA3F2" transform="translate(257.3046875,105.74609375)"/>
<path d="M0 0 C6.68259219 4.64875978 9.26897467 10.23754422 10.875 18 C12.79054238 20.33966344 12.79054238 20.33966344 16.125 20.3125 C19.86426323 20.2395692 19.86426323 20.2395692 22.8125 18.5 C27.36062032 16.27234923 31.28658619 16.16700137 36.0234375 17.69140625 C40.80385304 19.8150481 43.7283976 22.08070284 45.875 27 C46.91328095 34.15981235 46.10586695 39.15144863 41.875 45 C40.885 45.99 40.885 45.99 39.875 47 C39.4512411 50.81383012 39.20981067 53.07896862 41.5 56.25 C43.86487034 58.11221721 43.86487034 58.11221721 46.8125 59.375 C51.3939885 61.8059939 54.20623268 64.99369804 55.875 70 C56.48253325 77.41190569 54.78293719 80.51047537 50 86.25 C45.28958872 90.12916223 40.00690214 90.26282358 34.14453125 90.4609375 C31.7300361 90.81971258 31.7300361 90.81971258 30.08984375 92.83984375 C28.48662725 95.6905792 28.58897742 97.782246 28.875 101 C29.205 101.33 29.535 101.66 29.875 102 C30.59036367 108.7959549 29.15336346 112.69482931 24.875 118 C20.69160267 121.81427403 16.64105927 122.34748363 11.15625 122.28515625 C6.00094804 121.6407435 2.16226915 117.79300286 -1.125 114 C-1.125 113.34 -1.125 112.68 -1.125 112 C-2.56140171 111.80426392 -3.99919504 111.61872184 -5.4375 111.4375 C-6.23800781 111.33308594 -7.03851563 111.22867188 -7.86328125 111.12109375 C-10.29317116 110.85244822 -10.29317116 110.85244822 -13.125 112 C-13.393125 112.5775 -13.66125 113.155 -13.9375 113.75 C-16.12593465 117.89650775 -19.73486104 120.53662035 -24.125 122 C-28.67434863 122.52859098 -32.17999209 122.4361575 -36.375 120.5 C-40.30662157 116.92579857 -43.64729809 113.14306145 -44.46875 107.73828125 C-44.5 105.5625 -44.5 105.5625 -44.125 102 C-43.795 101.67 -43.465 101.34 -43.125 101 C-42.84601297 97.86139595 -42.76786571 95.70018801 -44.21484375 92.86328125 C-46.9454608 90.1996732 -49.18394849 90.3197914 -52.9375 90 C-62.25762016 88.86737984 -62.25762016 88.86737984 -66.125 85 C-69.44729211 80.17426558 -70.89290696 75.9238537 -70.125 70 C-67.44139358 62.54553772 -61.96500314 59.34046665 -55.125 56 C-53.55044261 52.85088521 -53.77700882 50.47991184 -54.125 47 C-55.58002622 44.73078943 -57.27247853 42.98807182 -59.125 41 C-61.05462772 35.21111685 -61.09080594 29.12477307 -58.5625 23.5625 C-54.32626588 19.10902311 -50.68156096 16.79943334 -44.5625 16.5625 C-40.46718094 16.73603047 -37.74139272 18.07125722 -34.125 20 C-30.53967819 20.50194505 -28.90166947 20.51777965 -25.875 18.5 C-23.94699034 15.74570049 -23.49498647 13.34739169 -22.80859375 10.09765625 C-21.29618341 5.4567171 -17.85726656 2.04847713 -13.75 -0.4375 C-8.80361426 -1.4974398 -4.77213197 -1.52708223 0 0 Z " fill="#CEA3F4" transform="translate(263.125,193)"/>
<path d="M0 0 C7.33590199 4.77843157 11.62856456 11.65837182 14 20 C15.32339593 30.72647224 12.87791124 40.16037827 6.4375 48.875 C1.39325043 54.26257545 -7.47221888 58.61745894 -14.8203125 59.23828125 C-22.21377368 59.40432825 -27.64458785 58.86641044 -34 55 C-35.04800781 54.38125 -35.04800781 54.38125 -36.1171875 53.75 C-43.49878749 48.8475034 -47.64893302 41.43178111 -50 33 C-50.88055277 24.83952844 -50.30216839 18.0496591 -46 11 C-45.57589844 10.30132812 -45.15179688 9.60265625 -44.71484375 8.8828125 C-34.17648681 -6.6752075 -15.80622083 -8.79670733 0 0 Z " fill="#030203" transform="translate(274,229)"/>
<path d="M0 0 C0.68779541 0.00507568 1.37559082 0.01015137 2.08422852 0.01538086 C3.76193014 0.02849929 5.43957417 0.04867105 7.1171875 0.0703125 C7.16654908 5.16063005 7.20288855 10.25080893 7.22705078 15.34130859 C7.23712126 17.07375515 7.25077839 18.80618466 7.26806641 20.53857422 C7.29226912 23.02575889 7.30365989 25.51271925 7.3125 28 C7.32282257 28.77713348 7.33314514 29.55426697 7.34378052 30.35494995 C7.34418021 32.26156743 7.2395089 34.16762286 7.1171875 36.0703125 C6.4571875 36.7303125 5.7971875 37.3903125 5.1171875 38.0703125 C-3.68553645 37.83949018 -11.8789421 34.10311958 -20.06054688 31.1328125 C-28.37738061 28.01884745 -28.37738061 28.01884745 -36.8828125 29.0703125 C-39.20860351 32.55899901 -39.30146707 33.96749769 -38.8828125 38.0703125 C-37.20094057 41.33956473 -35.87721674 42.07266396 -32.43701172 43.51831055 C-31.02488846 43.97014421 -29.60799466 44.40724813 -28.1875 44.83203125 C-27.06542648 45.1862188 -27.06542648 45.1862188 -25.92068481 45.54756165 C-23.53691787 46.29739389 -21.14783966 47.02820755 -18.7578125 47.7578125 C-16.36194815 48.50181163 -13.96733715 49.24964986 -11.57351685 50.00019836 C-10.08478565 50.46560143 -8.59463381 50.92648804 -7.10299683 51.38249207 C-1.99192646 52.96119854 -1.99192646 52.96119854 -0.8828125 54.0703125 C-0.50069444 57.15866393 -0.53273005 58.58838082 -2.38671875 61.140625 C-3.06605469 61.81867188 -3.74539062 62.49671875 -4.4453125 63.1953125 C-10.83991828 69.9860443 -15.372684 77.95208119 -19.8828125 86.0703125 C-28.111788 84.78513451 -34.86696605 76.47737741 -39.6953125 70.2578125 C-46.61161731 60.53291879 -52.67691161 49.12932137 -53.8828125 37.0703125 C-53.99367187 36.235 -54.10453125 35.3996875 -54.21875 34.5390625 C-54.53765814 30.53621544 -54.69382195 27.39655148 -52.5546875 23.8984375 C-50.46610504 21.70454836 -48.29659591 19.90246135 -45.8828125 18.0703125 C-44.903125 17.3175 -43.9234375 16.5646875 -42.9140625 15.7890625 C-30.04357268 6.41734661 -16.18660969 -0.2297505 0 0 Z " fill="#AD75C3" transform="translate(97.8828125,158.9296875)"/>
<path d="M0 0 C2.69126004 6.69685638 4.71593223 12.77331585 5 20 C5.06316406 21.02609375 5.12632812 22.0521875 5.19140625 23.109375 C5.67272985 36.83486083 2.00572811 49.70614277 -4 62 C-4.35964844 62.89332031 -4.71929687 63.78664063 -5.08984375 64.70703125 C-8.0851591 68.30263474 -11.48606563 68.48828209 -16 69 C-36.26538934 70.6264301 -55.42504379 68.48209861 -71.6875 55.125 C-72.8321875 54.073125 -72.8321875 54.073125 -74 53 C-73.175 52.05125 -72.35 51.1025 -71.5 50.125 C-70.33076637 48.75218216 -69.16435659 47.37695673 -68 46 C-67.04287109 44.87658203 -67.04287109 44.87658203 -66.06640625 43.73046875 C-61.50430541 38.22571159 -57.97654327 32.65353686 -54.73828125 26.2734375 C-53 24 -53 24 -50.57983398 23.63818359 C-48 24 -48 24 -46.38183594 25.46191406 C-45.92067383 26.13963867 -45.45951172 26.81736328 -44.984375 27.515625 C-44.4598877 28.267229 -43.93540039 29.01883301 -43.39501953 29.79321289 C-42.85216309 30.60395264 -42.30930664 31.41469238 -41.75 32.25 C-40.59658546 33.8999013 -39.44293878 35.54964034 -38.2890625 37.19921875 C-36.73066069 39.46602575 -35.1784004 41.73661358 -33.63574219 44.01416016 C-32.48244683 45.70860317 -31.30463304 47.38628605 -30.125 49.0625 C-29.48820312 50.00222656 -28.85140625 50.94195312 -28.1953125 51.91015625 C-25.24142099 54.72213482 -23.00701204 54.84322392 -19 55 C-16.4228264 54.25463249 -16.4228264 54.25463249 -15 52 C-14.36965051 45.68986989 -15.38351454 42.35682086 -19.375 37.375 C-19.8181958 36.78525391 -20.2613916 36.19550781 -20.71801758 35.58789062 C-22.12841776 33.71165881 -23.5615204 31.85476761 -25 30 C-26.91808834 27.51597055 -28.80914365 25.01414926 -30.6875 22.5 C-31.13335449 21.93716309 -31.57920898 21.37432617 -32.03857422 20.79443359 C-34.27333369 17.8013725 -35.02582378 16.38166666 -34.76953125 12.59375 C-34.38861328 11.30984375 -34.38861328 11.30984375 -34 10 C-32.74509766 9.77957031 -32.74509766 9.77957031 -31.46484375 9.5546875 C-21.59303173 7.65247787 -9.55092698 0 0 0 Z " fill="#AD75C4" transform="translate(395,370)"/>
<path d="M0 0 C4.18660692 0.49876545 7.58210856 2.097911 11.375 3.875 C18.732209 7.20075268 26.04296798 8.72954951 34 10 C34.875 12.453125 34.875 12.453125 35 16 C33.37991606 19.19997496 31.20214031 21.92986541 29 24.75 C28.10438354 25.94761963 28.10438354 25.94761963 27.19067383 27.16943359 C24.68832206 30.51429255 22.13967058 33.82051994 19.57421875 37.1171875 C15.68916331 42.26453041 15.68916331 42.26453041 14.3125 48.4375 C14.71656101 51.94143636 14.71656101 51.94143636 16.5625 54.0625 C20.10610409 55.42542465 22.33872275 54.91727931 26 54 C28.65529653 51.56777029 28.65529653 51.56777029 30.8125 48.3125 C31.43318359 47.45422607 31.43318359 47.45422607 32.06640625 46.57861328 C32.94223261 45.36215114 33.80874668 44.13893787 34.66650391 42.90966797 C36.02237955 40.96795077 37.40375421 39.04688422 38.79296875 37.12890625 C41.92437517 32.79435416 45.03347683 28.44978476 48 24 C50.3671875 23.390625 50.3671875 23.390625 53 24 C54.63372284 26.25638702 55.86161043 28.29717249 57.125 30.75 C60.58888838 37.0457954 64.4615564 42.15735624 69.54541016 47.22949219 C73 50.7223977 73 50.7223977 73 54 C66.73989376 59.84461246 58.89560958 63.01820685 51 66 C50.18144531 66.35449219 49.36289063 66.70898438 48.51953125 67.07421875 C41.77943322 69.55081291 34.70043707 69.18337678 27.625 69.1875 C25.97757813 69.20586914 25.97757813 69.20586914 24.296875 69.22460938 C12.59510831 69.24565572 12.59510831 69.24565572 7 67 C4.828125 64.19921875 4.828125 64.19921875 3.25 60.6875 C2.96688965 60.06810547 2.6837793 59.44871094 2.39208984 58.81054688 C-5.78532179 40.36807301 -8.00372001 20.18410263 -1 1 C-0.67 0.67 -0.34 0.34 0 0 Z " fill="#AD75C4" transform="translate(117,370)"/>
<path d="M0 0 C2.3816205 -0.03226821 4.76279616 -0.05571903 7.14453125 -0.07421875 C7.81230591 -0.0841687 8.48008057 -0.09411865 9.16809082 -0.10437012 C15.23123546 -0.13961017 20.33620561 0.94119007 26 3 C26.97582031 3.35191406 27.95164062 3.70382813 28.95703125 4.06640625 C39.64244723 8.22260784 55.54549 16.09098001 61 27 C62.34494245 43.82741949 54.26133768 61.48675592 43.6875 74.25 C39.60939523 78.65176388 35.01701182 82.70210412 30 86 C29.01 86 28.02 86 27 86 C26.32517578 84.71029297 26.32517578 84.71029297 25.63671875 83.39453125 C21.62987166 75.96428652 17.31194573 69.51308276 11.5065918 63.3527832 C9.26788043 60.90123799 8.05285412 59.48559723 7.6875 56.12890625 C7.790625 55.42636719 7.89375 54.72382813 8 54 C11.88354233 51.9575444 15.59826626 50.39709002 19.8125 49.1875 C25.30786448 47.53762152 30.75933799 45.79482067 36.1875 43.9375 C36.93040283 43.69217529 37.67330566 43.44685059 38.4387207 43.1940918 C42.9589827 41.63765007 42.9589827 41.63765007 46 38 C46.44998589 34.47511053 46.37938411 32.64330349 44.5625 29.5625 C40.70435419 27.20997207 37.24482896 28.13176499 33 29 C27.12135758 30.75155501 21.36869348 32.86362994 15.59765625 34.9375 C14.43621094 35.34226563 13.27476562 35.74703125 12.078125 36.1640625 C10.50659668 36.72794678 10.50659668 36.72794678 8.90332031 37.30322266 C5.80823887 38.04602138 4.01583322 37.93578539 1 37 C0 36 0 36 -0.11352539 32.58178711 C-0.11336628 31.06363012 -0.10767226 29.54546771 -0.09765625 28.02734375 C-0.0962413 27.22970108 -0.09482635 26.43205841 -0.09336853 25.61024475 C-0.08775316 23.05262565 -0.07519812 20.49509282 -0.0625 17.9375 C-0.05748698 16.20768355 -0.05292373 14.47786574 -0.04882812 12.74804688 C-0.03777875 8.49866447 -0.02050386 4.24934688 0 0 Z " fill="#AD75C4" transform="translate(407,159)"/>
<path d="M0 0 C8.49056611 4.02681925 15.36963838 9.40240788 22 16 C22.77214844 16.73734375 23.54429687 17.4746875 24.33984375 18.234375 C29.10038222 23.08442787 32.44720973 28.16706531 35.5 34.1875 C35.83854004 34.85273682 36.17708008 35.51797363 36.52587891 36.20336914 C38.58801911 40.50011752 39.55676855 44.25372994 40 49 C38.94683594 49.21914062 37.89367187 49.43828125 36.80859375 49.6640625 C27.76513026 51.62847326 19.58506363 54.14749252 11.171875 58.0234375 C7.43652021 59.17348516 6.43025296 58.58123455 3 57 C2.98598145 55.30472168 2.98598145 55.30472168 2.97167969 53.57519531 C2.93177608 49.37785579 2.86601674 45.18124896 2.79248047 40.984375 C2.7642729 39.16871561 2.74305726 37.35293348 2.72900391 35.53710938 C2.70757091 32.92514211 2.66092115 30.31465026 2.609375 27.703125 C2.60814636 26.89256653 2.60691772 26.08200806 2.60565186 25.24688721 C2.51200003 21.6350261 2.32112662 19.43602047 0.14941406 16.48730469 C-2.79728082 14.448315 -4.49020143 14.41503357 -8 15 C-10.32387871 16.43486039 -10.32387871 16.43486039 -12 19 C-12.38191666 21.99732536 -12.53437011 24.63843024 -12.50390625 27.6328125 C-12.51332748 28.46585907 -12.52274872 29.29890564 -12.53245544 30.15719604 C-12.5611041 32.8133821 -12.56418274 35.46867185 -12.5625 38.125 C-12.56610105 40.78833782 -12.57554025 43.4510262 -12.60325623 46.11422729 C-12.62012083 47.77016926 -12.62286086 49.42632612 -12.61024475 51.08230591 C-12.63110352 53.34814453 -12.63110352 53.34814453 -13 57 C-16 59 -16 59 -18.32421875 58.76953125 C-21.25549177 57.9265228 -23.99481863 56.85580691 -26.8125 55.6875 C-34.37132764 52.70557717 -42.09238401 50.81702601 -50 49 C-49.48119852 43.43729521 -48.0388169 39.20688151 -45.5 34.25 C-45.14252686 33.55116699 -44.78505371 32.85233398 -44.41674805 32.13232422 C-37.89669662 19.80612664 -16.41054096 -6.5820863 0 0 Z " fill="#AE75C5" transform="translate(261,34)"/>
<path d="M0 0 C2.51294541 3.09855806 4.20253698 6.22822497 5.8125 9.875 C6.27269531 10.88304687 6.73289062 11.89109375 7.20703125 12.9296875 C8.19900901 16.77054722 7.54532386 18.38803822 6 22 C5.58621094 23.08539063 5.17242187 24.17078125 4.74609375 25.2890625 C3.87157999 27.51841997 2.9965776 29.74758582 2.12109375 31.9765625 C-3.31261159 46.63052743 -0.5454147 64.43824065 5.47265625 78.421875 C11.99657799 91.56225639 23.11075278 103.78838531 37.3046875 108.81640625 C40.15700195 110.80776865 40.13263819 113.57554408 40.75 116.875 C40.99234375 118.10992187 41.2346875 119.34484375 41.484375 120.6171875 C42 124 42 124 42 128 C29.56521986 124.86379439 19.7016125 119.30318187 10 111 C8.989375 110.2575 7.97875 109.515 6.9375 108.75 C-6.23068943 97.55331915 -15.14694442 77.86800123 -17 61 C-18.38130221 37.81282803 -13.90823618 18.79426002 0 0 Z " fill="#F6E4D4" transform="translate(102,235)"/>
<path d="M0 0 C2.29178679 -0.32944435 3.65605908 -0.30066553 5.875 0.41796875 C8.64053589 2.68770955 11.13148562 5.16911092 13.6875 7.671875 C25.75922315 18.72861632 42.79797705 22.3984166 58.65234375 21.8984375 C73.07600061 20.94186208 86.68391459 14.5460849 96.9375 4.54296875 C102.01316259 -0.17636807 102.01316259 -0.17636807 106.375 -0.20703125 C107.88016883 -0.04008945 109.38086744 0.17104634 110.875 0.41796875 C112.72871731 0.5895611 114.58289565 0.75624516 116.4375 0.91796875 C117.91716801 1.08012415 119.39654276 1.24512198 120.875 1.41796875 C114.26520706 16.15229885 98.75540353 27.08871345 84.1640625 32.89453125 C63.02662319 40.46189072 41.08850414 41.21768663 20.52392578 31.63037109 C13.68917584 28.27297813 7.62750595 24.43942706 1.875 19.41796875 C1.276875 18.95003906 0.67875 18.48210937 0.0625 18 C-5.11885281 13.87110948 -9.35777439 8.85842963 -13.125 3.41796875 C-13.125 2.75796875 -13.125 2.09796875 -13.125 1.41796875 C-10.43863346 1.14143102 -7.75509252 0.88918768 -5.0625 0.6796875 C-2.24775367 0.48079693 -2.24775367 0.48079693 0 0 Z " fill="#F6E5D4" transform="translate(202.125,393.58203125)"/>
<path d="M0 0 C10.46903481 9.58301404 17.44435335 27.23351471 18.10668945 41.25927734 C18.72478644 66.8154944 13.20152449 88.33994649 -4.56542969 107.54052734 C-14.60285378 117.75218854 -27.22487356 124.33602775 -41 128 C-40.79277415 126.13496733 -40.57304664 124.27071566 -40.30078125 122.4140625 C-39.95216243 119.99583599 -39.95216243 119.99583599 -39.98046875 117.5234375 C-39.78207486 114.54291528 -39.41107818 112.65214694 -38 110 C-35.29269027 108.04718642 -32.6280137 106.54387311 -29.66699219 105.0324707 C-14.93759604 97.48956419 -6.16273683 84.43020222 -1 69 C3.5249529 52.84644682 2.41593227 35.61803952 -5.734375 20.859375 C-7 18 -7 18 -6.77734375 15.76171875 C-6.50019531 15.07722656 -6.22304688 14.39273438 -5.9375 13.6875 C-5.64101563 12.92953125 -5.34453125 12.1715625 -5.0390625 11.390625 C-4.69617188 10.60171875 -4.35328125 9.8128125 -4 9 C-3.63648438 8.14921875 -3.27296875 7.2984375 -2.8984375 6.421875 C-1.95723955 4.26863077 -0.99207096 2.13018283 0 0 Z " fill="#F6E5D4" transform="translate(409,235)"/>
<path d="M0 0 C1.85044922 -0.03673828 1.85044922 -0.03673828 3.73828125 -0.07421875 C12.38920145 -0.10150872 19.64473957 1.37084531 27.75 4.375 C27.75 5.035 27.75 5.695 27.75 6.375 C26.00998065 7.93461601 24.20696803 9.42449575 22.375 10.875 C18.43517459 13.98259138 18.43517459 13.98259138 14.75 17.375 C12.08300781 17.52270508 12.08300781 17.52270508 8.703125 17.39453125 C7.47215088 17.36157959 6.24117676 17.32862793 4.97290039 17.29467773 C3.0063147 17.24162476 3.0063147 17.24162476 1 17.1875 C-9.74266468 17.02466073 -18.68672681 17.01358218 -28.25 22.375 C-28.83765137 22.70209961 -29.42530273 23.02919922 -30.03076172 23.36621094 C-46.732399 32.85647079 -56.54531066 45.67824634 -62.33984375 63.8671875 C-63.34901782 67.38037704 -63.34901782 67.38037704 -63.61328125 71.1171875 C-64.25 74.375 -64.25 74.375 -66.140625 76.265625 C-66.91921875 76.71421875 -67.6978125 77.1628125 -68.5 77.625 C-69.31082031 78.10710937 -70.12164062 78.58921875 -70.95703125 79.0859375 C-71.71371094 79.51132813 -72.47039062 79.93671875 -73.25 80.375 C-74.219375 80.99375 -75.18875 81.6125 -76.1875 82.25 C-78.25 83.375 -78.25 83.375 -80.25 83.375 C-81.29392443 61.5685785 -75.25560576 42.53061058 -60.6875 25.86328125 C-50.11745632 15.07302833 -37.85573362 6.57937898 -23.25 2.375 C-22.64494629 2.19839844 -22.03989258 2.02179688 -21.41650391 1.83984375 C-14.32863189 0.0009703 -7.28672118 0.00751984 0 0 Z " fill="#F6E4D4" transform="translate(200.25,98.625)"/>
<path d="M0 0 C14.4894528 12.4311761 25.79614948 30.66532577 28.15234375 49.8203125 C28.43259337 55.15734692 28.33737621 60.4817835 28.15234375 65.8203125 C24.48592346 64.45529631 21.24157314 62.79234298 17.90234375 60.7578125 C16.59523438 59.96697266 16.59523438 59.96697266 15.26171875 59.16015625 C13.15234375 57.8203125 13.15234375 57.8203125 12.15234375 56.8203125 C11.68515087 54.68074765 11.2541882 52.53323702 10.83984375 50.3828125 C7.14061505 33.02624182 -1.87852347 18.57806166 -16.78515625 8.6953125 C-26.99303665 2.60370369 -39.16893051 -1.33350085 -51.09765625 -1.3046875 C-52.24492187 -1.30984375 -53.3921875 -1.315 -54.57421875 -1.3203125 C-57.42757192 -1.19773408 -59.72840365 -0.74818094 -62.47265625 -0.0546875 C-65.95957829 0.46285195 -66.8342569 -0.16995553 -69.7734375 -2.3046875 C-72.6024565 -4.79272902 -75.20494104 -7.49631513 -77.84765625 -10.1796875 C-78.50765625 -10.5096875 -79.16765625 -10.8396875 -79.84765625 -11.1796875 C-79.84765625 -11.8396875 -79.84765625 -12.4996875 -79.84765625 -13.1796875 C-77.8075587 -13.83046046 -75.76549956 -14.47508574 -73.72265625 -15.1171875 C-72.01722656 -15.65666016 -72.01722656 -15.65666016 -70.27734375 -16.20703125 C-46.39488199 -22.98007564 -19.24270751 -14.72898599 0 0 Z " fill="#F6E4D4" transform="translate(363.84765625,116.1796875)"/>
<path d="M0 0 C-0.29648438 0.58007812 -0.59296875 1.16015625 -0.8984375 1.7578125 C-6.33492597 12.82357273 -6.25166736 24.21270583 -3 36 C-3.74636719 36.51046875 -4.49273437 37.0209375 -5.26171875 37.546875 C-8.54064884 40.48434732 -9.99781616 43.30817021 -11.8125 47.25 C-12.12380859 47.8996875 -12.43511719 48.549375 -12.75585938 49.21875 C-13.51505446 50.80721971 -14.25910519 52.40291263 -15 54 C-19.5757933 52.54521914 -22.72882353 49.96772218 -26.1875 46.75 C-26.75412354 46.22349854 -27.32074707 45.69699707 -27.90454102 45.15454102 C-36.71590241 36.6975671 -43.93815928 26.11135767 -49 15 C-49 14.34 -49 13.68 -49 13 C-32.92887204 4.98389259 -18.1967117 -0.33697614 0 0 Z " fill="#F6E4D4" transform="translate(193,206)"/>
<path d="M0 0 C17.61364463 -0.96074425 33.65683749 4.8587301 49 13 C44.51543524 28.07625038 32.38689243 42.66881447 20 52 C17.203125 53.24609375 17.203125 53.24609375 15 54 C14.55269531 53.03578125 14.10539062 52.0715625 13.64453125 51.078125 C13.03450877 49.80177027 12.42379487 48.52574583 11.8125 47.25 C11.52052734 46.61578125 11.22855469 45.9815625 10.92773438 45.328125 C8.91195869 41.16652359 6.90772389 38.67264017 3 36 C3.33 34.80375 3.66 33.6075 4 32.375 C6.05844698 23.00092133 6.12680373 13.72977711 2 5 C1.4121875 3.515 1.4121875 3.515 0.8125 2 C0.544375 1.34 0.27625 0.68 0 0 Z " fill="#F6E5D4" transform="translate(319,206)"/>
<path d="M0 0 C1.67932617 -0.00483398 1.67932617 -0.00483398 3.39257812 -0.00976562 C17.25527608 0.07967114 17.25527608 0.07967114 21.9375 2.3125 C23.9695628 4.84221083 25.02136538 6.49180408 26.25 9.375 C26.73726563 10.44041016 26.73726563 10.44041016 27.234375 11.52734375 C33.96457102 26.93381656 36.62012833 43.92330084 31.9375 60.3125 C29.17382241 57.86770828 27.21277374 55.27654502 25.25 52.1875 C22.27471686 47.59965882 18.8073022 43.66744553 15.0859375 39.671875 C12.92352879 37.29715707 10.91812137 34.83980871 8.9375 32.3125 C9.7625 31.3225 10.5875 30.3325 11.4375 29.3125 C14.43520459 25.11058929 14.70013717 22.3967478 13.9375 17.3125 C12.5146736 15.05786751 12.5146736 15.05786751 9.9375 14.3125 C6.46309385 13.91435364 6.46309385 13.91435364 2.9375 15.3125 C0.58194961 17.76598356 -1.26938199 20.42906114 -3.0625 23.3125 C-6.85724088 22.18433379 -10.32411149 20.72131486 -13.875 19 C-21.31393093 15.53811524 -29.1743667 13.48566685 -37.0625 11.3125 C-34.67721176 8.60444998 -32.27828596 7.28419096 -29 5.8125 C-28.12214844 5.4103125 -27.24429687 5.008125 -26.33984375 4.59375 C-17.34182188 1.07604896 -9.69053381 -0.13995572 0 0 Z " fill="#CCA2F1" transform="translate(366.0625,72.6875)"/>
<path d="M0 0 C4.42057368 2.65234421 6.88224564 4.84149313 9.875 8.8125 C10.30627197 9.38145996 10.73754395 9.95041992 11.18188477 10.53662109 C19.66166898 22.07089195 26.01152669 35.6511648 25.5234375 50.21875 C24.57827641 55.24079997 21.815768 57.79863532 18 61 C16.67355469 62.12728516 16.67355469 62.12728516 15.3203125 63.27734375 C2.90880059 73.17033932 -11.17178877 79.02336569 -27 80 C-26.47212891 79.30777344 -26.47212891 79.30777344 -25.93359375 78.6015625 C-24.27546231 76.4109241 -22.63576806 74.2073881 -21 72 C-20.42378906 71.22914063 -19.84757812 70.45828125 -19.25390625 69.6640625 C-14.73481295 63.44401872 -11.26214861 56.95447067 -8 50 C-6.80375 50.33 -5.6075 50.66 -4.375 51 C-0.80849566 51.86957173 2.31618506 52.5023384 6 52 C8.52006844 50.56338689 8.52006844 50.56338689 10 48 C10.66676878 44.45749949 10.66676878 44.45749949 10 41 C6.89381102 37.37611286 2.52921065 36.69845399 -2 35 C-1.34 23.45 -0.68 11.9 0 0 Z " fill="#CCA2F1" transform="translate(443,273)"/>
<path d="M0 0 C0.62591479 2.02055018 1.25068609 4.0414546 1.875 6.0625 C2.22304688 7.18785156 2.57109375 8.31320312 2.9296875 9.47265625 C3.28289062 10.63667969 3.63609375 11.80070312 4 13 C4.34659668 14.08337646 4.69319336 15.16675293 5.05029297 16.28295898 C6.00390363 20.01527833 6.25825199 23.15760921 6.265625 27 C6.26949219 28.9490625 6.26949219 28.9490625 6.2734375 30.9375 C6.26715332 31.93910156 6.26715332 31.93910156 6.26074219 32.9609375 C6.25002584 34.99509494 6.2606751 37.0283695 6.2734375 39.0625 C6.27085937 40.361875 6.26828125 41.66125 6.265625 43 C6.26336914 44.175625 6.26111328 45.35125 6.25878906 46.5625 C5.97421284 50.34253137 5.15525931 53.40229078 4 57 C-13.90453534 56.92978614 -32.08920588 48.99923256 -46 38 C-46 37.67 -46 37.34 -46 37 C-44.83984375 36.85304688 -44.83984375 36.85304688 -43.65625 36.703125 C-34.63597583 35.40813514 -26.22198043 33.14686942 -20 26 C-16.25774001 20.54775996 -13.88585005 15.66588596 -13.1875 9.0625 C-12.56758585 4.44611806 -12.56758585 4.44611806 -9.9921875 2.421875 C-6.53357398 0.84270098 -3.81632162 0 0 0 Z " fill="#F7E5D4" transform="translate(321,294)"/>
<path d="M0 0 C0.82256376 2.86601941 1.10913944 5.36659898 1.0625 8.34375 C1.05412109 9.17293945 1.04574219 10.00212891 1.03710938 10.85644531 C1.01874023 12.16500488 1.01874023 12.16500488 1 13.5 C0.93984616 21.05477488 1.14452656 28.48405477 2 36 C0.95199219 36.39832031 0.95199219 36.39832031 -0.1171875 36.8046875 C-1.02726562 37.15789062 -1.93734375 37.51109375 -2.875 37.875 C-3.77992187 38.22304688 -4.68484375 38.57109375 -5.6171875 38.9296875 C-8.12217007 39.88530895 -8.12217007 39.88530895 -10 42 C-10.42707904 45.84371139 -10.51215772 48.1464038 -8.5 51.5 C-4.88284007 53.67029596 -1.91731027 52.81552545 2 52 C3.99921711 51.66200286 5.99908327 51.3277855 8 51 C8.40089844 51.87140625 8.80179688 52.7428125 9.21484375 53.640625 C13.33601004 62.2754496 18.00923911 69.49993889 24 77 C25.00497342 78.32958873 26.00705255 79.66140628 27 81 C8.75383493 80.28164704 -6.64175414 72.16835169 -20 60 C-20.88751953 59.23042969 -20.88751953 59.23042969 -21.79296875 58.4453125 C-24.61366994 55.64831469 -25.33567737 53.20310879 -25.5 49.375 C-24.52129766 31.73190648 -15.47629205 14.32188249 -3 2 C-2.01 1.34 -1.02 0.68 0 0 Z " fill="#CCA2F1" transform="translate(69,272)"/>
<path d="M0 0 C3.82922673 1.24191137 7.6037868 2.59431831 11.375 4 C19.28293509 6.87076186 26.60734389 8.3464735 35 9 C35.04898438 9.74765625 35.09796875 10.4953125 35.1484375 11.265625 C35.22320312 12.25046875 35.29796875 13.2353125 35.375 14.25 C35.47941406 15.71179688 35.47941406 15.71179688 35.5859375 17.203125 C35.98910348 19.92639708 36.52789508 21.69123113 38 24 C40.77100394 25.38550197 42.9334706 25.1877467 46 25 C49.24849977 23.27773504 49.24849977 23.27773504 50 20 C50.22179785 18.10787263 50.40614015 16.21115528 50.5625 14.3125 C50.64628906 13.31863281 50.73007812 12.32476562 50.81640625 11.30078125 C50.90728516 10.16189453 50.90728516 10.16189453 51 9 C52.06476563 8.84144531 53.12953125 8.68289063 54.2265625 8.51953125 C62.94311773 7.1449859 70.89204872 5.27857435 79.14453125 2.0859375 C81.43553989 1.21466472 83.61124453 0.52055204 86 0 C77.72135531 18.53100599 65.91943088 30.59477703 47.88671875 40.1015625 C42.8539381 41.66792184 39.19095472 40.54640684 34.4921875 38.390625 C33.27541226 37.69608736 32.06993137 36.98148039 30.875 36.25 C30.22974365 35.85586914 29.5844873 35.46173828 28.91967773 35.05566406 C15.86221366 26.70988685 5.44403291 14.58893547 0 0 Z " fill="#CCA2F1" transform="translate(213,438)"/>
<path d="M0 0 C10.02541563 2.57888505 16.1754699 14.89641676 21.17407227 23.16943359 C26.79594063 32.78887449 32.71386248 44.57820029 32 56 C31.34 56 30.68 56 30 56 C28.95061775 54.49151301 27.96101296 52.94126632 27 51.375 C22.45317227 44.68737422 16.99095262 41.62594366 9.625 38.625 C-1.77309324 36.65981151 -9.77982262 38.28342366 -19.25 44.75 C-22.78929367 47.49965046 -24.88807093 50.53227229 -26.9921875 54.4609375 C-27.32476562 54.96882813 -27.65734375 55.47671875 -28 56 C-28.66 56 -29.32 56 -30 56 C-28.63769769 35.56546537 -17.20428925 16.34813015 -3 2 C-2.01 1.34 -1.02 0.68 0 0 Z " fill="#F5E4D3" transform="translate(255,139)"/>
<path d="M0 0 C0 0.33 0 0.66 0 1 C-1.13695312 1.27972656 -2.27390625 1.55945313 -3.4453125 1.84765625 C-12.71023758 4.22128977 -20.96169221 7.07758524 -29.375 11.64453125 C-32 13 -32 13 -34 13 C-34.94174509 11.72004305 -35.82950049 10.40003896 -36.6875 9.0625 C-39.0307958 5.83115812 -39.6740838 5.10676565 -43.625 3.8125 C-46.90877551 3.82190689 -46.90877551 3.82190689 -49.4375 4.9375 C-51.38538904 7.50871353 -51.60887853 9.60062934 -51.47265625 12.79296875 C-50.6280368 16.73685295 -48.37888731 19.80549418 -46 23 C-46.71285156 23.67804688 -47.42570312 24.35609375 -48.16015625 25.0546875 C-54.24702644 30.93507879 -59.40578764 36.84651173 -64 44 C-64.81103778 45.20931526 -65.62328892 46.41781898 -66.4375 47.625 C-66.953125 48.40875 -67.46875 49.1925 -68 50 C-73.56057594 41.65913609 -71.72192623 27.54613296 -69.9375 18 C-67.79099128 9.03213424 -64.12802392 -0.30796412 -59 -8 C-40.39881656 -15.53145742 -16.60659164 -9.2774255 0 0 Z " fill="#CCA2F1" transform="translate(183,83)"/>
<path d="M0 0 C0.86238281 0.21849609 0.86238281 0.21849609 1.7421875 0.44140625 C3.17677341 0.79632975 4.61961474 1.12041569 6.0703125 1.40234375 C8.378747 2.00359 10.05203862 2.60859901 12 4 C12.88833614 6.36889637 13.1464341 8.6022295 13.47265625 11.109375 C14.83312196 18.56674259 18.50909868 25.26036317 24.375 30.0625 C31.26392974 34.7971992 37.72748215 36.44466894 46 37 C35.38238045 48.79142674 15.88317887 55.6289574 0.375 56.875 C-1.41592318 56.94133049 -3.20786009 56.99366735 -5 57 C-8.03162742 37.75137822 -7.36207468 18.07356171 0 0 Z " fill="#F8E6D5" transform="translate(191,294)"/>
<path d="M0 0 C4.98669007 2.49334503 8.49675474 5.99350949 11 11 C11.54360446 15.95482094 11.56437074 19.87125852 9.3125 24.375 C4.45305518 29.89112655 1.30858296 31.73317879 -5.875 32.3125 C-10.23455451 32.24767391 -12.6384369 30.82676897 -16 28 C-20.39893104 23.00661882 -21.35676337 20.08984773 -21.28125 13.5390625 C-20.73016315 8.56397287 -17.99302299 5.87480597 -14.375 2.6875 C-9.71860985 -0.62098774 -5.60468123 -0.62082623 0 0 Z " fill="#3193E2" transform="translate(261,240)"/>
<path d="M0 0 C0.66 0 1.32 0 2 0 C3.54931789 1.90708601 5.00157549 3.82241745 6.4375 5.8125 C9.56089243 10.10161631 12.6972801 13.74388031 16.73754883 17.18603516 C22.85295192 22.49888413 22.85295192 22.49888413 23.28125 26.87109375 C22.75 29.9375 22.75 29.9375 21.8984375 33.1640625 C20.75230071 38.05756827 20.56046042 42.80374405 20.375 47.8125 C20.31650879 49.16686157 20.31650879 49.16686157 20.25683594 50.54858398 C20.16483513 52.69879214 20.0814796 54.84936746 20 57 C8.11965567 49.23528688 1.16284618 39.04364237 -2 25 C-2.26150097 21.993257 -2.28036716 19.01647074 -2.25 16 C-2.25773437 15.23171875 -2.26546875 14.4634375 -2.2734375 13.671875 C-2.25668263 8.74594371 -1.56563275 4.67204694 0 0 Z " fill="#3193E2" transform="translate(119,269)"/>
<path d="M0 0 C0.66 0 1.32 0 2 0 C6.06363375 10.24035705 5.25852203 23.20045471 1.2578125 33.328125 C-2.49758977 41.30543915 -6.93085402 48.51926536 -14 54 C-15.32351017 54.37041829 -16.65669318 54.70945624 -18 55 C-18.04898437 53.77925781 -18.09796875 52.55851562 -18.1484375 51.30078125 C-18.18437012 50.51010254 -18.22030273 49.71942383 -18.25732422 48.90478516 C-18.33635187 47.1638815 -18.40819026 45.42263787 -18.47314453 43.68115234 C-18.70824007 38.5385564 -19.45632526 34.09647655 -20.875 29.125 C-21.42655028 26.02449949 -21.68103385 24.06151903 -19.94335938 21.35302734 C-16.859094 17.71287693 -13.28253901 14.64945468 -9.67822266 11.54003906 C-6.50754134 8.63042926 -4.04384378 5.17254334 -1.48828125 1.73046875 C-0.99714844 1.15941406 -0.50601562 0.58835937 0 0 Z " fill="#3193E3" transform="translate(391,270)"/>
<path d="M0 0 C0.78632813 0.50273437 1.57265625 1.00546875 2.3828125 1.5234375 C3.49914062 2.04679687 4.61546875 2.57015625 5.765625 3.109375 C6.37075928 3.39868896 6.97589355 3.68800293 7.59936523 3.98608398 C14.40314861 7.238705 21.22203739 10.12658762 28.3828125 12.5234375 C21.99610858 19.53687405 12.01205369 22.98696711 2.6796875 23.7421875 C-9.42145813 24.1223282 -20.5607668 21.41323718 -30.6171875 14.5234375 C-30.9471875 13.8634375 -31.2771875 13.2034375 -31.6171875 12.5234375 C-31.05845947 12.30727783 -30.49973145 12.09111816 -29.92407227 11.8684082 C-27.33996033 10.86426108 -24.75986002 9.85016198 -22.1796875 8.8359375 C-20.86194336 8.32643555 -20.86194336 8.32643555 -19.51757812 7.80664062 C-15.02216107 6.03169736 -10.89808489 4.15157836 -6.76953125 1.62890625 C-2.96596275 -0.54007083 -2.96596275 -0.54007083 0 0 Z " fill="#3194E3" transform="translate(257.6171875,376.4765625)"/>
<path d="M0 0 C12.62780897 -1.01022472 24.86849285 3.95851182 34.40234375 12.03515625 C40.88928444 18.15511527 47.51033062 25.69628169 48 35 C41.78734805 34.2068955 35.76923872 32.87274319 29.671875 31.4609375 C28.91390625 31.28820312 28.1559375 31.11546875 27.375 30.9375 C26.63644775 30.76436279 25.89789551 30.59122559 25.13696289 30.4128418 C22.73727056 29.89518144 22.73727056 29.89518144 19.18359375 29.83203125 C16 29 16 29 13.84765625 25.82421875 C13.2284581 24.45598519 12.63458103 23.0760938 12.0625 21.6875 C11.40399478 20.22865514 10.73851514 18.77294015 10.06640625 17.3203125 C9.73141113 16.59360352 9.39641602 15.86689453 9.05126953 15.11816406 C6.93778057 10.85977339 4.19102972 7.04987516 1.46875 3.16015625 C0 1 0 1 0 0 Z " fill="#3193E3" transform="translate(310,130)"/>
<path d="M0 0 C1.76923828 0.01353516 1.76923828 0.01353516 3.57421875 0.02734375 C4.47785156 0.03894531 5.38148438 0.05054688 6.3125 0.0625 C4.99641819 2.76097346 3.58356296 5.3540741 2.03515625 7.92578125 C1.38836914 9.00956055 1.38836914 9.00956055 0.72851562 10.11523438 C-0.16763197 11.61139999 -1.06603974 13.10621436 -1.96679688 14.59960938 C-2.61551758 15.68918945 -2.61551758 15.68918945 -3.27734375 16.80078125 C-3.70587646 17.51484131 -4.13440918 18.22890137 -4.57592773 18.96459961 C-5.63489494 20.96321704 -6.21848209 22.79879875 -6.84375 24.9609375 C-8.6875 28.0625 -8.6875 28.0625 -10.81665039 28.94897461 C-13.62365103 29.59256652 -16.39284041 30.01573899 -19.25 30.375 C-21.16808295 30.66199819 -23.08605262 30.9497546 -25.00390625 31.23828125 C-25.94250488 31.36928223 -26.88110352 31.5002832 -27.84814453 31.63525391 C-32.16071632 32.28417915 -36.42201796 33.15900873 -40.6875 34.0625 C-39.56276941 24.4601126 -33.18691539 16.69319941 -26.36328125 10.140625 C-18.73299224 4.21461952 -9.69954428 -0.09603509 0 0 Z " fill="#3294E3" transform="translate(194.6875,130.9375)"/>
</svg>
